<?xml version="1.0" encoding="utf-8"?>
<!-- Generator: Adobe Illustrator 19.0.0, SVG Export Plug-In . SVG Version: 6.00 Build 0)  -->
<svg version="1.1" id="link-svg" xmlns="http://www.w3.org/2000/svg" xmlns:xlink="http://www.w3.org/1999/xlink" x="0px" y="0px"
	 viewBox="-340.5 210.6 176 179" style="enable-background:new -340.5 210.6 176 179;fill:#fff;" xml:space="preserve">
<g id="Layer_2">
</g>
<g>
	<g>
		<path d="M-235.8,288c0.2-0.2,0.5-0.4,0.7-0.6l54.9-54.9l-0.4,1.1c-0.4,1.1-0.6,2.3-0.6,3.4v19.7c-0.1,2.5,1.7,4.7,4.2,5.2
			c2.8,0.4,5.3-1.5,5.8-4.2c0-0.2,0.1-0.4,0.1-0.7v-35.7c0-2.8-2.3-5-5-5c0,0,0,0,0,0H-212c-2.8,0-5,2.3-5,5c0,0.2,0,0.4,0,0.7
			c0.5,2.5,2.7,4.3,5.2,4.2l19.7,0c1,0,2.1-0.2,3.1-0.5l1.6-0.6l-54.8,54.8c-1.9,1.8-2.2,4.6-0.8,6.8
			C-241.3,289.1-238.1,289.6-235.8,288z"/>
	</g>
</g>
<g>
	<path d="M-168.5,300.1c0,46.4-37.6,84-84,84c-46.4,0-84-37.6-84-84c0-46.4,37.6-84,84-84c8.3,0,16.4,1.2,23.9,3.5
		c0.4,0.1,0.8,0.2,1.2,0.4c0.2,0.1,0.5,0.2,0.7,0.4c1.5,0.9,2.4,2.5,2.4,4.4c0,2.7-2.1,5-4.8,5.2c-1.2-0.4-2.4-0.8-3.7-1.1
		c-0.2-0.1-0.3-0.3-0.5-0.4l-0.2,0.2c-6.1-1.6-12.5-2.5-19.1-2.5c-40.8,0-74,33.2-74,74s33.2,74,74,74c40.8,0,74-33.2,74-74
		c0-7.7-1.2-15.1-3.4-22.1c-0.1-0.2-0.1-0.4-0.2-0.6c-0.5-1.5-1-2.9-1.6-4.3c0.4-2.6,2.7-4.6,5.4-4.6c1.7,0,3.2,0.8,4.2,2
		c0.1,0.1,0.1,0.2,0.2,0.3c0.4,1,0.7,1.9,1,2.9C-170,282-168.5,290.8-168.5,300.1z"/>
	<path d="M-226.6,220.2l-0.1,0.1c-0.2-0.1-0.4-0.3-0.7-0.4C-227.1,220-226.8,220.1-226.6,220.2z"/>
	<path d="M-173.8,270.7c-0.1-0.1-0.1-0.2-0.2-0.3l0.1-0.1C-173.9,270.5-173.8,270.6-173.8,270.7z"/>
</g>
<path d="M-229.1,229.9c-0.1,0-0.3,0-0.4,0c-1.2,0-2.4-0.4-3.3-1.1C-231.5,229.1-230.3,229.5-229.1,229.9z"/>
<path d="M-227.3,219.9c-0.4-0.1-0.8-0.3-1.2-0.4C-228.1,219.6-227.7,219.8-227.3,219.9z"/>
<path d="M-182.1,277.4c0.1,0.2,0.1,0.4,0.2,0.6c-0.1-0.1-0.3-0.3-0.4-0.4c-0.9-1-1.4-2.2-1.4-3.6c0-0.3,0-0.6,0.1-0.9
	C-183.1,274.5-182.5,275.9-182.1,277.4z"/>
<path d="M-172.8,273.6c-0.3-1-0.7-2-1-2.9C-173.2,271.5-172.8,272.5-172.8,273.6z"/>
</svg>
