<?xml version="1.0" encoding="UTF-8"?>
<!DOCTYPE svg PUBLIC "-//W3C//DTD SVG 1.1//EN" "http://www.w3.org/Graphics/SVG/1.1/DTD/svg11.dtd">
<!-- Creator: CorelDRAW X7 -->
<svg xmlns="http://www.w3.org/2000/svg" xml:space="preserve" width="8.5in" height="11in" version="1.1" style="shape-rendering:geometricPrecision; text-rendering:geometricPrecision; image-rendering:optimizeQuality; fill-rule:evenodd; clip-rule:evenodd"
viewBox="0 0 8500 11000"
 xmlns:xlink="http://www.w3.org/1999/xlink">
 <defs>
  <style type="text/css">
   <![CDATA[
    .fil0 {fill:#FEFEFE}
   ]]>
  </style>
 </defs>
 <g id="Layer_x0020_1">
  <metadata id="CorelCorpID_0Corel-Layer"/>
  <path class="fil0" d="M4204 5447c-3,0 -6,2 -6,5 0,3 3,5 6,5l60 0 -22 23c-1,1 -2,2 -2,3 0,3 2,6 5,6 2,0 3,-1 4,-2l31 -31c1,-1 2,-3 2,-4 0,-1 -1,-3 -2,-4l-31 -31c-1,-1 -2,-1 -4,-1 -3,0 -5,2 -5,5 0,1 1,3 2,4l22 22 -60 0z"/>
  <path class="fil0" d="M4167 5452c0,40 33,73 73,73 40,0 73,-33 73,-73 0,-40 -33,-73 -73,-73 -40,0 -73,33 -73,73l0 0zm10 0c0,35 28,63 63,63 35,0 63,-28 63,-63 0,-35 -28,-63 -63,-63 -35,0 -63,28 -63,63l0 0z"/>
 </g>
</svg>
