<?xml version="1.0" encoding="utf-8"?>
<!-- Generator: Adobe Illustrator 26.2.1, SVG Export Plug-In . SVG Version: 6.00 Build 0)  -->
<svg version="1.1" id="Layer_1" xmlns="http://www.w3.org/2000/svg" xmlns:xlink="http://www.w3.org/1999/xlink" x="0px" y="0px"
	 viewBox="0 0 612 792" style="enable-background:new 0 0 612 792;" xml:space="preserve">
<style type="text/css">
	.st0{opacity:0.5;fill-rule:evenodd;clip-rule:evenodd;}
	.st1{fill-rule:evenodd;clip-rule:evenodd;fill:#FFFFFF;}
</style>
<g>
	<circle class="st0" cx="306" cy="396" r="279"/>
	<g id="Layer_x0020_1">
		<g id="_2285712042864">
			<path class="st1" d="M153,374.1c-12,0-21.8,9.8-21.8,21.9s9.8,21.8,21.8,21.8l253.2,0.1l-93.8,93.8c-4.1,4-6.4,9.6-6.4,15.4
				c0,12.1,9.8,21.9,21.9,21.9c5.8,0,11.4-2.3,15.5-6.4l131.1-131.1c4.1-4.1,6.4-9.7,6.4-15.5s-2.3-11.4-6.4-15.5L343.3,249.3
				c-4-4-9.6-6.3-15.4-6.3c-12.1,0-21.9,9.8-21.9,21.9c0,5.8,2.3,11.4,6.4,15.5l93.8,93.7H153z"/>
			<path class="st1" d="M0,396c0,169,137.1,306,306,306c169,0,306-137,306-306S475,90,306,90C137.1,90,0,227,0,396L0,396z M41.6,396
				c0,146,118.4,264.4,264.4,264.4c146,0,264.4-118.4,264.4-264.4S452,131.6,306,131.6C160.1,131.6,41.6,250,41.6,396L41.6,396z"/>
		</g>
	</g>
</g>
</svg>
