<?xml version="1.0" encoding="utf-8"?>
<!-- Generator: Adobe Illustrator 26.2.1, SVG Export Plug-In . SVG Version: 6.00 Build 0)  -->
<svg version="1.1" id="close-svg" xmlns="http://www.w3.org/2000/svg" xmlns:xlink="http://www.w3.org/1999/xlink" x="0px" y="0px"
	 viewBox="0 0 168 168" style="enable-background:new 0 0 168 168;" xml:space="preserve">
<style type="text/css">
	.st0{opacity:0.5;fill-rule:evenodd;clip-rule:evenodd;}
	.st1{fill:#FFFFFF;}
</style>
<g id="Layer_2_00000121989707517257234070000006962865719902875069_">
</g>
<g>
	<circle class="st0" cx="84" cy="84" r="80.1"/>
	<g id="Layer_1">
		<polygon class="st1" points="133,79 89,79 89,35 79,35 79,79 35,79 35,89 79,89 79,133 89,133 89,89 133,89 		"/>
		<path class="st1" d="M84,10c40.8,0,74,33.2,74,74s-33.2,74-74,74s-74-33.2-74-74S43.2,10,84,10 M84,0C37.6,0,0,37.6,0,84
			s37.6,84,84,84s84-37.6,84-84S130.4,0,84,0L84,0z"/>
	</g>
</g>
</svg>
