<?xml version="1.0" encoding="UTF-8"?>
<!DOCTYPE svg PUBLIC "-//W3C//DTD SVG 1.1//EN" "http://www.w3.org/Graphics/SVG/1.1/DTD/svg11.dtd">
<!-- Creator: CorelDRAW X7 -->
<svg xmlns="http://www.w3.org/2000/svg" xml:space="preserve" width="8.5in" height="11in" version="1.1" style="shape-rendering:geometricPrecision; text-rendering:geometricPrecision; image-rendering:optimizeQuality; fill-rule:evenodd; clip-rule:evenodd"
viewBox="0 0 8500 11000"
 xmlns:xlink="http://www.w3.org/1999/xlink">
 <defs>
  <style type="text/css">
   <![CDATA[
    .fil0 {fill:white}
   ]]>
  </style>
 </defs>
 <g id="Layer_x0020_1">
  <metadata id="CorelCorpID_0Corel-Layer"/>
  <g id="_2285712042864">
   <path class="fil0" d="M2115 5148c-167,0 -303,136 -303,304 0,168 136,303 303,303l3517 1 -1303 1303c-57,56 -89,134 -89,214 0,168 136,304 304,304 80,0 158,-32 215,-89l1821 -1821c57,-57 89,-135 89,-215 0,-80 -32,-158 -89,-215l-1822 -1822c-56,-56 -134,-88 -214,-88 -168,0 -304,136 -304,304 0,80 32,158 89,215l1303 1302 -3517 0z"/>
   <path class="fil0" d="M-10 5452c0,2347 1904,4250 4250,4250 2347,0 4250,-1903 4250,-4250 0,-2347 -1903,-4250 -4250,-4250 -2346,0 -4250,1903 -4250,4250l0 0zm578 0c0,2028 1645,3672 3672,3672 2028,0 3672,-1644 3672,-3672 0,-2028 -1644,-3672 -3672,-3672 -2027,0 -3672,1644 -3672,3672l0 0z"/>
  </g>
 </g>
</svg>
