<svg id="plus-icon" version="1.1" xmlns="http://www.w3.org/2000/svg" xmlns:xlink="http://www.w3.org/1999/xlink" x="0px" y="0px" viewBox="0 0 168 168" enable-background="new 0 0 168 168" xml:space="preserve" style="transform: matrix3d(0, 1, 0, 0, -1, 0, 0, 0, 0, 0, 1, 0, 0, 0, 0, 1);">
                                                <g id="Layer_2"></g>
                                                <g id="Layer_1">
                                                    <polygon fill="#231F20" points="133,79 89,79 89,35 79,35 79,79 35,79 35,89 79,89 79,133 89,133 89,89 133,89 "></polygon>
                                                    <path fill="#231F20" d="M84,10c40.8,0,74,33.2,74,74s-33.2,74-74,74s-74-33.2-74-74S43.2,10,84,10 M84,0C37.61,0,0,37.61,0,84s37.61,84,84,84s84-37.61,84-84S130.39,0,84,0L84,0z"></path>
                                                </g>
                                            </svg>